<svg width="2544" height="572" viewBox="0 0 2544 572" fill="none" xmlns="http://www.w3.org/2000/svg">
<g clip-path="url(#clip0_0_1)">
<path fill-rule="evenodd" clip-rule="evenodd" d="M500 142.857L250.018 0L-1.52588e-05 142.857V428.571L250.018 571.429L500 428.571V142.857Z" fill="url(#paint0_linear_0_1)"/>
<path fill-rule="evenodd" clip-rule="evenodd" d="M250 0V571.429L0 428.571V142.857L250 0Z" fill="url(#paint1_linear_0_1)"/>
<path fill-rule="evenodd" clip-rule="evenodd" d="M500 428.571L0 142.857L250.018 0L500 142.857V428.571Z" fill="url(#paint2_linear_0_1)"/>
<path style="mix-blend-mode:multiply" fill-rule="evenodd" clip-rule="evenodd" d="M500 142.857L0 428.179V142.857L250.018 0L500 142.857Z" fill="url(#paint3_linear_0_1)" fill-opacity="0.48"/>
</g>
<path d="M740.688 478V120.624H949.584V147.76H771.408V282.928H940.88V310.064H771.408V450.864H949.584V478H740.688ZM1031.62 478V215.856H1060.8V257.328H1062.34C1065.07 250.843 1068.48 244.869 1072.58 239.408C1076.67 233.605 1081.62 228.485 1087.42 224.048C1093.23 219.611 1100.05 216.197 1107.9 213.808C1116.1 211.077 1125.65 209.712 1136.58 209.712C1155.35 209.712 1171.9 214.149 1186.24 223.024C1200.58 231.899 1210.99 245.893 1217.47 265.008H1219.01C1223.79 249.648 1232.83 236.677 1246.14 226.096C1259.8 215.173 1278.23 209.712 1301.44 209.712C1329.43 209.712 1350.93 218.416 1365.95 235.824C1380.97 252.891 1388.48 277.467 1388.48 309.552V478H1359.3V314.672C1359.3 262.107 1337.28 235.824 1293.25 235.824C1284.03 235.824 1275.33 237.019 1267.14 239.408C1258.94 241.797 1251.61 245.552 1245.12 250.672C1238.98 255.451 1234.03 261.595 1230.27 269.104C1226.52 276.272 1224.64 284.635 1224.64 294.192V478H1195.46V314.672C1195.46 262.107 1173.61 235.824 1129.92 235.824C1121.05 235.824 1112.34 237.019 1103.81 239.408C1095.62 241.797 1088.28 245.381 1081.79 250.16C1075.31 254.939 1070.19 261.083 1066.43 268.592C1062.68 275.76 1060.8 284.123 1060.8 293.68V478H1031.62ZM1573.81 484.144C1556.4 484.144 1540.53 481.072 1526.2 474.928C1512.2 468.784 1500.08 459.909 1489.84 448.304C1479.95 436.357 1472.27 421.851 1466.8 404.784C1461.68 387.717 1459.12 368.432 1459.12 346.928C1459.12 325.424 1461.68 306.309 1466.8 289.584C1472.27 272.517 1479.95 258.181 1489.84 246.576C1500.08 234.629 1512.2 225.584 1526.2 219.44C1540.19 212.955 1555.89 209.712 1573.3 209.712C1590.03 209.712 1605.21 212.955 1618.87 219.44C1632.52 225.584 1644.13 234.288 1653.68 245.552C1663.24 256.816 1670.58 270.469 1675.7 286.512C1681.16 302.213 1683.89 319.621 1683.89 338.736V352.56H1489.84V365.36C1489.84 379.013 1491.72 391.643 1495.48 403.248C1499.57 414.512 1505.2 424.24 1512.37 432.432C1519.88 440.624 1528.93 447.109 1539.51 451.888C1550.09 456.325 1562.04 458.544 1575.35 458.544C1613.58 458.544 1640.03 440.965 1654.71 405.808L1676.21 420.144C1668.02 439.6 1655.05 455.131 1637.3 466.736C1619.89 478.341 1598.73 484.144 1573.81 484.144ZM1573.3 234.288C1560.67 234.288 1549.24 236.677 1539 241.456C1528.76 245.893 1519.88 252.208 1512.37 260.4C1505.2 268.592 1499.57 278.491 1495.48 290.096C1491.72 301.36 1489.84 313.819 1489.84 327.472V330.032H1652.15V325.936C1652.15 312.283 1650.27 299.824 1646.52 288.56C1642.76 276.955 1637.3 267.227 1630.13 259.376C1623.31 251.525 1614.94 245.381 1605.04 240.944C1595.49 236.507 1584.91 234.288 1573.3 234.288ZM1758.12 478V215.856H1787.3V262.96H1789.35C1794.47 250.672 1803.17 239.749 1815.46 230.192C1827.75 220.635 1845.16 215.856 1867.68 215.856H1885.09V244.528H1862.05C1840.21 244.528 1822.29 249.307 1808.29 258.864C1794.3 268.421 1787.3 281.733 1787.3 298.8V478H1758.12ZM2120.34 478C2109.08 478 2100.88 475.099 2095.76 469.296C2090.64 463.493 2087.74 455.643 2087.06 445.744V436.528H2084.5C2078.7 451.205 2069.14 462.811 2055.83 471.344C2042.52 479.877 2025.62 484.144 2005.14 484.144C1977.49 484.144 1956.16 477.488 1941.14 464.176C1926.12 450.523 1918.61 431.408 1918.61 406.832C1918.61 383.621 1926.8 365.189 1943.19 351.536C1959.91 337.883 1987.22 331.056 2025.11 331.056H2085.52V300.336C2085.52 256.987 2063.17 235.312 2018.45 235.312C2001.04 235.312 1986.54 239.067 1974.93 246.576C1963.33 253.744 1953.94 264.155 1946.77 277.808L1928.34 262.448C1935.51 247.088 1946.43 234.459 1961.11 224.56C1976.13 214.661 1995.58 209.712 2019.48 209.712C2050.2 209.712 2073.75 217.392 2090.13 232.752C2106.52 248.112 2114.71 269.616 2114.71 297.264V452.4H2150.04V478H2120.34ZM2009.24 459.056C2019.82 459.056 2029.72 457.691 2038.93 454.96C2048.15 452.229 2056.17 448.475 2063 443.696C2070.16 438.576 2075.63 432.603 2079.38 425.776C2083.48 418.608 2085.52 410.587 2085.52 401.712V353.072H2024.08C1997.8 353.072 1978.69 357.339 1966.74 365.872C1955.13 374.064 1949.33 385.499 1949.33 400.176V412.464C1949.33 427.824 1954.79 439.429 1965.72 447.28C1976.64 455.131 1991.15 459.056 2009.24 459.056ZM2242.37 478C2231.79 478 2223.77 475.099 2218.31 469.296C2212.85 463.493 2210.12 455.813 2210.12 446.256V99.12H2239.3V452.4H2279.75V478H2242.37ZM2514.59 436.016H2513.05C2506.23 450.693 2496.16 462.469 2482.84 471.344C2469.87 479.877 2453.32 484.144 2433.18 484.144C2399.39 484.144 2372.93 472.197 2353.82 448.304C2334.71 424.411 2325.15 390.619 2325.15 346.928C2325.15 303.237 2334.71 269.445 2353.82 245.552C2372.93 221.659 2399.39 209.712 2433.18 209.712C2453.32 209.712 2470.04 214.149 2483.36 223.024C2496.67 231.557 2506.57 243.163 2513.05 257.84H2514.59V99.12H2543.77V478H2514.59V436.016ZM2439.84 458.032C2450.08 458.032 2459.63 456.667 2468.51 453.936C2477.72 451.205 2485.75 447.28 2492.57 442.16C2499.4 436.699 2504.69 430.384 2508.44 423.216C2512.54 415.707 2514.59 407.344 2514.59 398.128V294.192C2514.59 285.659 2512.54 277.808 2508.44 270.64C2504.69 263.472 2499.4 257.328 2492.57 252.208C2485.75 247.088 2477.72 243.163 2468.51 240.432C2459.63 237.36 2450.08 235.824 2439.84 235.824C2413.55 235.824 2393.07 244.187 2378.4 260.912C2363.72 277.637 2356.38 300.165 2356.38 328.496V365.36C2356.38 393.691 2363.72 416.219 2378.4 432.944C2393.07 449.669 2413.55 458.032 2439.84 458.032Z" fill="white"/>
<defs>
<linearGradient id="paint0_linear_0_1" x1="500" y1="28571.4" x2="-49500" y2="28571.4" gradientUnits="userSpaceOnUse">
<stop stop-color="#169A78"/>
<stop offset="1" stop-color="#169A78"/>
</linearGradient>
<linearGradient id="paint1_linear_0_1" x1="12500" y1="0" x2="12500" y2="57142.9" gradientUnits="userSpaceOnUse">
<stop stop-color="#171717" stop-opacity="0.48"/>
<stop offset="1" stop-color="#171717" stop-opacity="0"/>
</linearGradient>
<linearGradient id="paint2_linear_0_1" x1="43832.5" y1="44459.6" x2="3358.32" y2="10704.8" gradientUnits="userSpaceOnUse">
<stop stop-color="white" stop-opacity="0"/>
<stop offset="1" stop-color="white" stop-opacity="0.64"/>
</linearGradient>
<linearGradient id="paint3_linear_0_1" x1="-7052" y1="47640" x2="48487.6" y2="3222.22" gradientUnits="userSpaceOnUse">
<stop stop-color="#169A78"/>
<stop offset="1" stop-color="#169A78" stop-opacity="0"/>
</linearGradient>
<clipPath id="clip0_0_1">
<rect width="500" height="571.429" fill="white"/>
</clipPath>
</defs>
</svg>
